<svg width="546" height="151" viewBox="0 0 546 151" fill="none" xmlns="http://www.w3.org/2000/svg">
<path d="M32.0229 6.64282H43.6524V27.0971L61.8757 6.64282H75.5362L53.4457 31.498L76.0092 58.346H61.5975L43.6802 36.8122V58.346H32.0507V36.8122L14.1335 58.346H0.0556436L22.3131 31.8025L0 6.64282H13.7996L32.0229 27.0971V6.64282Z" fill="#EDEDED"/>
<path d="M96.4578 18.6001C98.9896 18.6001 101.354 19.043 103.525 19.901C105.695 20.7867 107.531 22.1706 109.033 24.0804C108.727 20.4269 107.614 17.493 105.695 15.2787C103.775 13.0645 100.798 11.9573 96.7638 11.9573C94.399 11.9573 92.2011 12.1511 90.2535 12.5386C88.2782 12.9261 86.4141 13.618 84.6614 14.5868H83.0477V4.31808C84.9674 3.4047 87.1097 2.7681 89.5302 2.43595C91.9229 2.10381 94.3155 1.93774 96.7082 1.93774C100.381 1.93774 103.691 2.43595 106.668 3.43238C109.645 4.4288 112.177 5.95111 114.264 7.97163C116.35 9.99215 117.964 12.5939 119.105 15.7769C120.245 18.9323 120.802 22.6688 120.802 26.9313V36.1205C120.802 39.608 120.301 42.8187 119.327 45.6973C118.354 48.5758 116.935 51.0392 115.098 53.0597C113.262 55.0802 110.981 56.6856 108.282 57.7927C105.556 58.9275 102.495 59.4811 99.1009 59.4811C96.0127 59.4811 93.0914 58.9552 90.4205 57.8481C87.7218 56.7686 85.4126 55.274 83.4928 53.3642C81.5453 51.4544 80.0429 49.1847 78.9579 46.583C77.8728 43.9812 77.3164 41.1303 77.3164 38.0857C77.3164 35.3179 77.8172 32.7161 78.8188 30.3358C79.8204 27.9554 81.1836 25.8795 82.9364 24.1635C84.6614 22.4474 86.6924 21.0912 89.0294 20.0671C91.3386 19.0983 93.8147 18.6001 96.4578 18.6001ZM99.1009 49.074C102.245 49.074 104.721 48.0222 106.501 45.9187C108.282 43.8151 109.172 41.2134 109.172 38.1411V37.3661C109.061 35.0134 108.115 33.0206 106.307 31.4152C104.498 29.8099 102.106 29.0349 99.1009 29.0349C95.9014 29.0349 93.3974 29.9206 91.6168 31.6643C89.8362 33.4081 88.9459 35.567 88.9459 38.1411C88.9459 41.2134 89.8362 43.8151 91.6168 45.9187C93.3974 48.0222 95.9014 49.074 99.1009 49.074Z" fill="#EDEDED"/>
<path d="M150.349 48.9907C152.881 48.9907 155.441 48.6586 158 48.022C160.56 47.3854 162.535 46.6104 163.926 45.7523H165.54V56.3255C163.843 57.1558 161.561 57.8755 158.723 58.5121C155.886 59.1487 153.048 59.4808 150.266 59.4808C143.032 59.4808 137.245 57.5987 132.905 53.8068C128.565 50.0148 126.395 44.839 126.395 38.2515C126.395 35.2069 126.951 32.3837 128.036 29.7542C129.121 27.1248 130.596 24.9105 132.515 23.0284C134.435 21.1463 136.716 19.6793 139.332 18.6275C141.975 17.5758 144.84 17.0499 147.929 17.0499C151.295 17.0499 154.328 17.6588 157.026 18.849C159.753 20.0668 162.006 21.7275 163.815 23.8588C165.623 25.99 166.959 28.5364 167.821 31.498C168.684 34.4596 168.906 37.6703 168.545 41.1024H137.941C138.497 43.5658 139.86 45.5032 141.975 46.8872C144.089 48.2988 146.899 48.9907 150.349 48.9907ZM140.5 13.5901C138.58 13.5901 136.967 12.9258 135.604 11.5972C134.268 10.241 133.6 8.60797 133.6 6.72584C133.6 4.84371 134.268 3.23837 135.604 1.93749C136.967 0.636603 138.608 0 140.5 0C142.42 0 144.034 0.636603 145.397 1.93749C146.732 3.21069 147.4 4.81604 147.4 6.72584C147.4 8.63565 146.732 10.241 145.397 11.5972C144.061 12.8981 142.42 13.5901 140.5 13.5901ZM147.956 26.6819C145.619 26.6819 143.644 27.2355 142.03 28.3427C140.389 29.4498 139.22 30.9721 138.497 32.9373H157.249C156.581 30.8337 155.441 29.256 153.882 28.2319C152.297 27.2078 150.321 26.6819 147.956 26.6819ZM157.332 13.5901C155.413 13.5901 153.799 12.9258 152.436 11.5972C151.1 10.2687 150.433 8.63565 150.433 6.72584C150.433 4.81604 151.1 3.23837 152.436 1.93749C153.799 0.636603 155.413 0 157.332 0C159.252 0 160.866 0.636603 162.229 1.93749C163.564 3.21069 164.232 4.81604 164.232 6.72584C164.232 8.63565 163.564 10.241 162.229 11.5972C160.866 12.8981 159.252 13.5901 157.332 13.5901Z" fill="#EDEDED"/>
<path d="M176.641 18.2126H190.607L202.793 44.5071L215.424 18.2126H228.612V58.3186H216.982V36.1759L206.132 58.3186H198.369L187.519 35.7884V58.3186H176.668V18.2126H176.641Z" fill="#EDEDED"/>
<path d="M281.419 58.3186H259.551V18.2126H279.332C283.617 18.2126 287.15 19.1537 289.877 21.0635C292.603 22.9733 293.994 25.4644 293.994 28.5367C293.994 30.5849 293.466 32.384 292.408 33.9063C291.351 35.4286 289.904 36.5911 288.096 37.4214C290.377 38.1411 292.214 39.3036 293.605 40.8812C294.996 42.4866 295.691 44.4517 295.691 46.8321C295.691 50.2919 294.328 53.0597 291.574 55.1633C288.819 57.2668 285.453 58.3186 281.419 58.3186ZM277.162 26.7653H271.18V33.7956H277.162C278.664 33.7956 279.861 33.4634 280.779 32.7992C281.697 32.1349 282.142 31.2492 282.142 30.1697C282.142 29.0902 281.753 28.2599 280.974 27.651C280.167 27.0697 278.915 26.7653 277.162 26.7653ZM278.998 41.9053H271.152V49.766H278.998C280.556 49.766 281.725 49.4062 282.532 48.6589C283.338 47.9115 283.728 46.9705 283.728 45.8357C283.728 44.7009 283.338 43.7598 282.559 43.0125C281.808 42.2652 280.612 41.9053 278.998 41.9053Z" fill="#EDEDED"/>
<path d="M324.289 18.2126H354.921V28.2322H335.919V58.3186H324.289V18.2126Z" fill="#EDEDED"/>
<path d="M379.964 59.4803C376.848 59.4803 373.954 58.9545 371.283 57.8473C368.585 56.7679 366.275 55.2732 364.356 53.3634C362.408 51.4536 360.906 49.184 359.821 46.5822C358.736 43.9805 358.207 41.1296 358.207 38.085C358.207 35.0957 358.736 32.3279 359.821 29.7538C360.906 27.1797 362.408 24.9654 364.356 23.0833C366.303 21.2012 368.612 19.7342 371.283 18.6548C373.982 17.5753 376.875 17.0217 379.964 17.0217C383.052 17.0217 385.945 17.5476 388.616 18.6548C391.287 19.7342 393.569 21.2012 395.516 23.0833C397.464 24.9654 398.966 27.1797 400.051 29.7538C401.136 32.3279 401.693 35.0957 401.693 38.085C401.693 41.1296 401.136 43.9528 400.051 46.5822C398.966 49.2117 397.464 51.4813 395.516 53.3634C393.569 55.2732 391.287 56.7679 388.616 57.8473C385.945 58.9545 383.08 59.4803 379.964 59.4803ZM379.964 49.0733C383.108 49.0733 385.584 48.0215 387.364 45.9179C389.145 43.8144 390.035 41.2126 390.035 38.1403C390.035 35.1511 389.145 32.6323 387.364 30.5841C385.584 28.5359 383.108 27.4842 379.964 27.4842C376.764 27.4842 374.26 28.5083 372.48 30.5841C370.699 32.6323 369.809 35.1511 369.809 38.1403C369.809 41.2126 370.699 43.8144 372.48 45.9179C374.288 48.0215 376.764 49.0733 379.964 49.0733Z" fill="#EDEDED"/>
<path d="M441.478 57.017C439.976 57.7366 438.14 58.3179 435.969 58.7884C433.799 59.2589 431.629 59.4803 429.459 59.4803C426.315 59.4803 423.366 58.9545 420.667 57.8473C417.941 56.7679 415.604 55.2732 413.601 53.3634C411.598 51.4536 410.067 49.184 408.954 46.5822C407.842 43.9805 407.285 41.1296 407.285 38.085C407.285 35.0957 407.842 32.3002 408.954 29.7261C410.067 27.1243 411.625 24.9101 413.601 23.0556C415.576 21.2012 417.941 19.7342 420.667 18.6548C423.394 17.5753 426.315 17.0217 429.459 17.0217C431.685 17.0217 433.855 17.2432 436.025 17.7137C438.167 18.1842 440.004 18.7655 441.478 19.4851V30.0582H439.837C438.696 29.3386 437.333 28.7297 435.719 28.2038C434.105 27.6779 432.186 27.4288 429.904 27.4288C426.593 27.4288 423.923 28.3975 421.919 30.3627C419.916 32.3279 418.887 34.902 418.887 38.085C418.887 41.3233 419.888 43.9528 421.919 46.001C423.923 48.0215 426.593 49.0456 429.904 49.0456C432.13 49.0456 434.05 48.7965 435.691 48.2706C437.333 47.7447 438.696 47.1358 439.837 46.4162H441.478V57.017Z" fill="#EDEDED"/>
<path d="M447.066 28.2322V18.2126H484.292V28.2322H471.494V58.3186H459.864V28.2322H447.066Z" fill="#EDEDED"/>
<path d="M491.418 42.2645V18.1843H503.047V40.161C503.047 43.0949 503.743 45.2815 505.106 46.7484C506.47 48.2154 508.528 48.935 511.283 48.935C513.926 48.935 516.04 48.1046 517.682 46.4716C519.295 44.8386 520.13 42.735 520.13 40.2163V18.212H531.76V58.318H520.13V53.6957C518.683 55.4948 516.903 56.9064 514.788 57.9305C512.674 58.9546 510.226 59.4805 507.416 59.4805C502.046 59.4805 498.04 57.9028 495.396 54.7751C492.726 51.6475 491.418 47.468 491.418 42.2645Z" fill="#EDEDED"/>
<path d="M0 108.99H11.6295V127.036L27.5992 108.99H40.0078L23.259 127.811L40.7868 149.096H26.8202L11.6295 130.662V149.096H0V108.99Z" fill="#EDEDED"/>
<path d="M85.6071 108.989V149.095H73.9776V144.085C72.4752 146.05 70.6111 147.545 68.3854 148.624C66.1596 149.704 63.7113 150.23 61.0126 150.23C58.2582 150.23 55.7264 149.704 53.4172 148.652C51.0802 147.6 49.077 146.133 47.4077 144.251C45.7384 142.369 44.4308 140.099 43.4848 137.47C42.5389 134.841 42.0938 131.962 42.0938 128.862C42.0938 125.817 42.5667 123.022 43.4848 120.42C44.403 117.818 45.7106 115.604 47.4077 113.75C49.077 111.895 51.0802 110.456 53.4172 109.376C55.7543 108.325 58.286 107.799 61.0126 107.799C63.7113 107.799 66.1596 108.352 68.3854 109.432C70.6111 110.511 72.4752 112.006 73.9776 113.916V108.989H85.6071ZM63.8226 139.85C66.7717 139.85 69.1644 139.103 71.0284 137.581C72.8925 136.058 73.8663 134.066 73.9776 131.602V126.592C73.9776 124.074 73.0316 122.053 71.1397 120.531C69.2478 119.009 66.7995 118.261 63.8226 118.261C60.8178 118.261 58.3973 119.23 56.5333 121.195C54.6692 123.16 53.7511 125.734 53.7511 128.917C53.7511 132.156 54.6692 134.785 56.5333 136.833C58.3973 138.882 60.8178 139.85 63.8226 139.85Z" fill="#EDEDED"/>
<path d="M119.966 108.99H131.596V126.815L146.008 108.99H158.416L143.142 127.894L159.195 149.123H145.229L131.568 130.828V149.123H119.939V130.828L106.278 149.123H92.3672L108.42 127.894L93.1462 108.99H105.555L119.966 126.815V108.99Z" fill="#EDEDED"/>
<path d="M179.282 109.377C181.814 109.377 184.179 109.82 186.349 110.678C188.519 111.564 190.355 112.948 191.857 114.858C191.551 111.204 190.439 108.27 188.519 106.056C186.599 103.842 183.622 102.734 179.588 102.734C177.223 102.734 175.025 102.928 173.078 103.316C171.102 103.703 169.238 104.395 167.486 105.364H165.872V95.0952C167.792 94.1818 169.934 93.5452 172.354 93.2131C174.747 92.8809 177.14 92.7148 179.532 92.7148C183.205 92.7148 186.516 93.2131 189.493 94.2095C192.47 95.2059 195.001 96.7282 197.088 98.7487C199.175 100.769 200.788 103.371 201.929 106.554C203.07 109.737 203.626 113.446 203.626 117.708V126.898C203.626 130.385 203.125 133.596 202.152 136.474C201.178 139.353 199.759 141.816 197.923 143.837C196.086 145.857 193.805 147.463 191.106 148.57C188.38 149.705 185.319 150.258 181.925 150.258C178.837 150.258 175.916 149.732 173.245 148.653C170.546 147.573 168.237 146.079 166.289 144.169C164.342 142.259 162.839 139.989 161.754 137.388C160.669 134.758 160.141 131.935 160.141 128.89C160.141 126.123 160.641 123.521 161.643 121.141C162.645 118.76 164.008 116.684 165.761 114.968C167.486 113.252 169.517 111.896 171.854 110.872C174.191 109.848 176.639 109.377 179.282 109.377ZM181.925 139.851C185.069 139.851 187.545 138.799 189.326 136.696C191.106 134.592 191.997 131.99 191.997 128.89V128.115C191.885 125.763 190.939 123.77 189.131 122.165C187.323 120.559 184.93 119.784 181.925 119.784C178.726 119.784 176.222 120.67 174.441 122.414C172.66 124.157 171.77 126.316 171.77 128.89C171.77 131.99 172.66 134.565 174.441 136.696C176.222 138.827 178.726 139.851 181.925 139.851Z" fill="#EDEDED"/>
<path d="M230.224 149.096H211.527V108.99H223.157V120.864H230.224C235.176 120.864 239.182 122.165 242.215 124.766C245.247 127.368 246.75 130.717 246.75 134.841C246.75 136.751 246.36 138.578 245.581 140.322C244.802 142.065 243.717 143.588 242.298 144.861C240.879 146.134 239.154 147.186 237.096 147.961C235.065 148.708 232.755 149.096 230.224 149.096ZM229.918 130.524H223.185V139.464H229.918C231.531 139.464 232.783 139.021 233.729 138.107C234.647 137.194 235.12 136.115 235.12 134.841C235.12 133.568 234.647 132.516 233.729 131.714C232.783 130.911 231.531 130.524 229.918 130.524ZM251.34 149.096V108.99H262.97V149.096H251.34Z" fill="#EDEDED"/>
<path d="M272.43 133.04V108.96H284.059V130.937C284.059 133.871 284.755 136.057 286.118 137.524C287.481 138.991 289.54 139.711 292.267 139.711C294.91 139.711 297.024 138.88 298.666 137.247C300.279 135.614 301.114 133.511 301.114 130.992V108.932H312.744V149.038H301.114V144.471C299.667 146.271 297.887 147.682 295.772 148.706C293.658 149.73 291.209 150.256 288.399 150.256C283.03 150.256 279.023 148.679 276.38 145.551C273.737 142.423 272.43 138.244 272.43 133.04ZM291.877 105.888C288.01 105.888 284.922 104.919 282.612 102.954C280.303 100.989 278.968 98.304 278.55 94.8442L288.399 93.5986C288.539 95.0379 288.956 96.1174 289.568 96.8093C290.18 97.5013 290.959 97.8611 291.905 97.8611C292.851 97.8611 293.602 97.529 294.242 96.8093C294.882 96.0897 295.244 95.0379 295.411 93.5986L305.259 94.8442C304.842 98.304 303.479 100.989 301.197 102.954C298.86 104.919 295.772 105.888 291.877 105.888Z" fill="#EDEDED"/>
<path d="M360.512 109.377C363.044 109.377 365.409 109.82 367.579 110.678C369.749 111.564 371.585 112.948 373.087 114.858C372.781 111.204 371.669 108.27 369.749 106.056C367.829 103.842 364.852 102.734 360.818 102.734C358.425 102.734 356.255 102.928 354.308 103.316C352.332 103.703 350.468 104.395 348.716 105.364H347.102V95.0952C349.022 94.1818 351.164 93.5452 353.584 93.2131C355.977 92.8809 358.37 92.7148 360.762 92.7148C364.435 92.7148 367.746 93.2131 370.723 94.2095C373.7 95.2059 376.231 96.7282 378.318 98.7487C380.405 100.769 382.018 103.371 383.159 106.554C384.3 109.709 384.856 113.446 384.856 117.708V126.898C384.856 130.385 384.355 133.596 383.382 136.474C382.408 139.353 380.989 141.816 379.153 143.837C377.316 145.857 375.035 147.463 372.336 148.57C369.61 149.705 366.549 150.258 363.155 150.258C360.039 150.258 357.146 149.732 354.475 148.653C351.804 147.573 349.467 146.079 347.547 144.169C345.6 142.259 344.097 139.989 343.012 137.388C341.927 134.758 341.398 131.935 341.398 128.89C341.398 126.123 341.899 123.521 342.901 121.141C343.902 118.76 345.266 116.684 347.018 114.968C348.743 113.252 350.774 111.896 353.111 110.872C355.393 109.875 357.869 109.377 360.512 109.377ZM363.155 139.851C366.299 139.851 368.775 138.799 370.556 136.696C372.336 134.592 373.227 131.99 373.227 128.89V128.115C373.115 125.763 372.169 123.77 370.361 122.165C368.552 120.559 366.16 119.784 363.155 119.784C359.956 119.784 357.452 120.67 355.671 122.414C353.89 124.157 353 126.316 353 128.89C353 131.99 353.89 134.565 355.671 136.696C357.452 138.799 359.956 139.851 363.155 139.851Z" fill="#EDEDED"/>
<path d="M414.408 139.767C416.94 139.767 419.499 139.435 422.059 138.799C424.618 138.162 426.594 137.387 427.985 136.529H429.598V147.102C427.901 147.932 425.62 148.652 422.782 149.289C419.944 149.925 417.106 150.257 414.324 150.257C407.091 150.257 401.304 148.375 396.963 144.583C392.623 140.791 390.453 135.616 390.453 129.028C390.453 125.984 390.982 123.16 392.067 120.531C393.152 117.901 394.654 115.659 396.574 113.777C398.494 111.895 400.747 110.428 403.39 109.376C406.033 108.325 408.899 107.799 411.987 107.799C415.354 107.799 418.386 108.408 421.113 109.626C423.839 110.843 426.093 112.504 427.901 114.635C429.71 116.767 431.045 119.313 431.88 122.275C432.742 125.236 432.993 128.447 432.631 131.879H401.999C402.583 134.342 403.919 136.28 406.033 137.664C408.148 139.075 410.958 139.767 414.408 139.767ZM412.015 117.459C409.678 117.459 407.703 118.012 406.089 119.119C404.475 120.226 403.279 121.749 402.556 123.714H421.335C420.668 121.61 419.527 120.033 417.969 119.009C416.355 117.984 414.38 117.459 412.015 117.459Z" fill="#EDEDED"/>
<path d="M440.699 108.99H452.329V123.715H468.605V108.99H480.234V149.096H468.605V133.734H452.329V149.096H440.699V108.99Z" fill="#EDEDED"/>
<path d="M509.165 149.096H490.469V108.99H502.098V120.864H509.165C514.117 120.864 518.124 122.165 521.156 124.766C524.189 127.368 525.691 130.717 525.691 134.841C525.691 136.751 525.302 138.578 524.523 140.322C523.744 142.065 522.659 143.588 521.24 144.861C519.821 146.134 518.096 147.186 516.037 147.961C514.006 148.708 511.697 149.096 509.165 149.096ZM508.859 130.524H502.126V139.464H508.859C510.473 139.464 511.725 139.021 512.671 138.107C513.589 137.194 514.062 136.115 514.062 134.841C514.062 133.568 513.589 132.516 512.671 131.714C511.725 130.911 510.473 130.524 508.859 130.524Z" fill="#EDEDED"/>
<path d="M544.612 143.698C544.612 145.553 544.028 147.047 542.859 148.182C541.691 149.317 540.244 149.87 538.464 149.87C536.766 149.87 535.32 149.289 534.151 148.182C532.983 147.047 532.398 145.553 532.398 143.698C532.398 141.954 532.983 140.487 534.151 139.297C535.32 138.107 536.739 137.526 538.464 137.526C540.216 137.526 541.691 138.107 542.859 139.214C544.028 140.349 544.612 141.844 544.612 143.698ZM532.593 97.4199H545.002L543.305 131.686H534.318L532.593 97.4199Z" fill="#EDEDED"/>
</svg>
